<svg width="41" height="31" viewBox="0 0 41 31" fill="none" xmlns="http://www.w3.org/2000/svg">
<path d="M18.4349 1.13507C18.6842 0.780709 18.9998 0.49481 19.3584 0.298384C19.717 0.101959 20.1095 0 20.507 0C20.9045 0 21.297 0.101959 21.6556 0.298384C22.0141 0.49481 22.3297 0.780709 22.5791 1.13507L40.1426 24.3805C40.697 25.1535 41 26.1226 41 27.1227C41 28.1228 40.697 29.092 40.1426 29.8649C39.8932 30.2193 39.5776 30.5052 39.2191 30.7016C38.8605 30.898 38.468 31 38.0705 31C37.673 31 37.2805 30.898 36.9219 30.7016C36.5633 30.5052 36.2477 30.2193 35.9984 29.8649L20.5022 9.34672L5.00164 29.8447C4.75226 30.1991 4.43668 30.485 4.0781 30.6814C3.71952 30.8778 3.32705 30.9798 2.92952 30.9798C2.532 30.9798 2.13953 30.8778 1.78095 30.6814C1.42237 30.485 1.10679 30.1991 0.857411 29.8447C0.303023 29.0718 0 28.1026 0 27.1025C0 26.1024 0.303023 25.1333 0.857411 24.3603L18.4208 1.12127L18.4349 1.13507Z" fill="black" fill-opacity="0.5"/>
</svg>
