<svg width="42" height="24" viewBox="0 0 42 24" fill="none" xmlns="http://www.w3.org/2000/svg">
<path d="M0 11.979C0 12.8196 0.294 13.5342 0.882 14.1226C1.47 14.711 2.17 15.0053 2.982 15.0053C3.794 15.0053 4.508 14.711 5.124 14.1226C5.74 13.5342 6.034 12.8196 6.006 11.979C6.006 10.3257 6.594 8.91068 7.77 7.7338C8.946 6.55692 10.36 5.96848 12.012 5.96848C13.664 5.96848 15.078 6.55692 16.254 7.7338C17.43 8.91068 18.018 10.3257 18.018 11.979C18.018 14.1646 18.55 16.1821 19.614 18.0315C20.678 19.8809 22.134 21.338 23.982 22.4028C25.83 23.4676 27.832 24 29.988 24C32.144 24 34.16 23.4676 36.036 22.4028C37.912 21.338 39.368 19.8809 40.404 18.0315C41.44 16.1821 41.972 14.1646 42 11.979C42 11.1664 41.706 10.4658 41.118 9.87741C40.53 9.28897 39.83 8.99475 39.018 8.99475C38.206 8.99475 37.492 9.28897 36.876 9.87741C36.26 10.4658 35.966 11.1664 35.994 11.979C35.994 13.6322 35.406 15.0473 34.23 16.2242C33.054 17.4011 31.64 17.9895 29.988 17.9895C28.336 17.9895 26.922 17.4151 25.746 16.2662C24.57 15.1173 23.982 13.6883 23.982 11.979C23.982 9.82137 23.45 7.81786 22.386 5.96848C21.322 4.11909 19.866 2.662 18.018 1.5972C16.17 0.532399 14.168 0 12.012 0C9.856 0 7.84 0.532399 5.964 1.5972C4.088 2.662 2.632 4.11909 1.596 5.96848C0.56 7.81786 0.028 9.82137 0 11.979Z" fill="black" fill-opacity="0.5"/>
</svg>
