<svg xmlns="http://www.w3.org/2000/svg" width="334.988" height="45.54" viewBox="0 0 334.988 45.54">
  <g id="Logo_Good_Resize" data-name="Logo Good Resize" transform="translate(0.5 1.084)" style="isolation: isolate">
    <path id="Path_1" data-name="Path 1" d="M32.2,130.245V86.291H64.045v7.653H40.717v12.462H55.475l1.41-2.206,4.482,9.6H40.717v14.283l3.793,2.158Z" transform="translate(-32.2 -86.291)" fill="gold" stroke="#090d27" stroke-width="1"/>
    <path id="Path_2" data-name="Path 2" d="M-1596.607,711.637V667.683h21.1s13.832,1.029,14.117,13.9-11.969,13.251-11.969,13.251l10.927,13.838,4.194,2.962h-11.557L-1586.979,689h11.476s4.682-.869,4.725-7.049-4.725-6.793-4.725-6.793h-12.674v33.974l4.419,2.5Z" transform="translate(1631.905 -667.683)" fill="gold" stroke="#090d27" stroke-width="1"/>
    <path id="Path_3" data-name="Path 3" d="M-1710.675,391.721l22.769-43.954,22.927,43.954h-14.971l3.914-2.637-11.87-24.231-12.03,24.231,3.947,2.637Z" transform="translate(1787.796 -347.767)" fill="gold" stroke="#090d27" stroke-width="1"/>
    <path id="Subtraction_2" data-name="Subtraction 2" d="M92.311,42.356H77.574l4.448-2.735L71.181,16.979,57.85,41.725,44.479,16.979,40.7,24.984,36.329,17.66,45.71,0,57.85,23.209,70.243,0,92.309,42.355Z" transform="translate(76.387 1.598)" fill="gold" stroke="#090d27" stroke-width="1"/>
    <path id="Path_5" data-name="Path 5" d="M-1284.163,349.756l-3.987-2.559h38.02v7.566h-24.988v11.1h20.786l-4.3,8.742-1.088-1.842h-15.4v11.553h24.988v6.842h-34.034Z" transform="translate(1456.849 -347.197)" fill="gold" stroke="#090d27" stroke-width="1"/>
    <path id="Subtraction_1" data-name="Subtraction 1" d="M23.3,43.954H3.99V2.733L0,0H23.372a17.279,17.279,0,0,1,11.7,4.853,17.664,17.664,0,0,1,4.039,6.472A30.085,30.085,0,0,1,40.718,21.9a28.7,28.7,0,0,1-2.58,12.531,16.841,16.841,0,0,1-5.626,6.571A17.292,17.292,0,0,1,23.3,43.954ZM11.362,6.725V37.384H23.868A13.788,13.788,0,0,0,28.836,34.3a15.266,15.266,0,0,0,3.44-4.865,19.805,19.805,0,0,0,1.616-7.978,17.86,17.86,0,0,0-1.516-7.791,12.586,12.586,0,0,0-3.45-4.454,12.174,12.174,0,0,0-5.058-2.485Z" transform="translate(210.168 0)" fill="#05b0ef" stroke="#090d27" stroke-width="1"/>
    <path id="Path_8" data-name="Path 8" d="M-1195.013,457.783h8.909v36.74h25.135v7.214h-38.182l4.138-2.517Z" transform="translate(1453.488 -457.783)" fill="#05b0ef" stroke="#090d27" stroke-width="1"/>
    <path id="Path_9" data-name="Path 9" d="M-1284.163,349.756l-3.987-2.559h38.02v7.566h-24.988v11.1h20.786l-4.3,8.742-1.088-1.842h-15.4v11.553h24.988v6.842h-34.034Z" transform="translate(1584.118 -347.197)" fill="#05b0ef" stroke="#090d27" stroke-width="1"/>
  </g>
</svg>
